<svg width="690" height="220" viewBox="0 0 690 220" fill="none" xmlns="http://www.w3.org/2000/svg">
<path d="M0 0H690V220H0V0Z" fill="#0B1F3A"/>
<path d="M225.191 97V31.5455H265.781V40.0469H235.067V59.9901H262.872V68.4595H235.067V97H225.191Z" fill="white"/>
<path d="M291.269 98.0866C288.158 98.0866 285.346 97.5114 282.831 96.3608C280.317 95.1889 278.325 93.495 276.855 91.2791C275.406 89.0632 274.681 86.3466 274.681 83.1293C274.681 80.3594 275.214 78.0795 276.279 76.2898C277.345 74.5 278.783 73.0831 280.594 72.0391C282.405 70.995 284.429 70.2067 286.667 69.674C288.904 69.1413 291.184 68.7365 293.506 68.4595C296.446 68.1186 298.833 67.8416 300.665 67.6285C302.498 67.3942 303.829 67.0213 304.66 66.5099C305.491 65.9986 305.907 65.1676 305.907 64.017V63.7933C305.907 61.0021 305.118 58.8395 303.542 57.3054C301.986 55.7713 299.664 55.0043 296.574 55.0043C293.357 55.0043 290.821 55.718 288.968 57.1456C287.135 58.5518 285.868 60.1179 285.164 61.8438L276.184 59.7983C277.249 56.8153 278.804 54.4077 280.85 52.5753C282.917 50.7216 285.292 49.3793 287.977 48.5483C290.662 47.696 293.485 47.2699 296.446 47.2699C298.407 47.2699 300.484 47.5043 302.679 47.973C304.895 48.4205 306.961 49.2514 308.879 50.4659C310.818 51.6804 312.405 53.4169 313.641 55.6754C314.877 57.9126 315.495 60.821 315.495 64.4006V97H306.162V90.2884H305.779C305.161 91.5241 304.234 92.7386 302.998 93.9318C301.762 95.125 300.175 96.1158 298.236 96.9041C296.297 97.6925 293.975 98.0866 291.269 98.0866ZM293.346 90.4162C295.988 90.4162 298.247 89.8942 300.122 88.8501C302.018 87.8061 303.456 86.4425 304.436 84.7592C305.438 83.0547 305.939 81.233 305.939 79.294V72.9659C305.598 73.3068 304.937 73.6264 303.957 73.9247C302.998 74.2017 301.901 74.4467 300.665 74.6598C299.429 74.8516 298.225 75.0327 297.054 75.2031C295.882 75.3523 294.902 75.4801 294.113 75.5866C292.26 75.821 290.566 76.2152 289.032 76.7692C287.519 77.3231 286.304 78.1222 285.388 79.1662C284.493 80.1889 284.046 81.5526 284.046 83.2571C284.046 85.6222 284.919 87.4119 286.667 88.6264C288.414 89.8196 290.64 90.4162 293.346 90.4162Z" fill="white"/>
<path d="M328.223 97V47.9091H337.779V97H328.223ZM333.049 40.3345C331.387 40.3345 329.959 39.7805 328.766 38.6726C327.594 37.5433 327.008 36.201 327.008 34.6456C327.008 33.0689 327.594 31.7266 328.766 30.6186C329.959 29.4893 331.387 28.9247 333.049 28.9247C334.711 28.9247 336.128 29.4893 337.3 30.6186C338.493 31.7266 339.089 33.0689 339.089 34.6456C339.089 36.201 338.493 37.5433 337.3 38.6726C336.128 39.7805 334.711 40.3345 333.049 40.3345Z" fill="white"/>
<path d="M350.635 97V47.9091H359.871V55.7074H360.383C361.278 53.0653 362.854 50.9879 365.113 49.4751C367.393 47.941 369.971 47.174 372.847 47.174C373.444 47.174 374.147 47.1953 374.957 47.2379C375.788 47.2805 376.438 47.3338 376.906 47.3977V56.5384C376.523 56.4318 375.841 56.3146 374.861 56.1868C373.881 56.0376 372.901 55.9631 371.92 55.9631C369.662 55.9631 367.648 56.4425 365.88 57.4013C364.133 58.3388 362.748 59.6491 361.725 61.3324C360.702 62.9943 360.191 64.8906 360.191 67.0213V97H350.635Z" fill="white"/>
<path d="M385.943 97V31.5455H395.499V55.8672H396.074C396.628 54.8445 397.427 53.6619 398.471 52.3196C399.515 50.9773 400.964 49.8054 402.818 48.804C404.672 47.7813 407.122 47.2699 410.169 47.2699C414.132 47.2699 417.669 48.2713 420.78 50.2741C423.89 52.277 426.33 55.1641 428.099 58.9354C429.888 62.7067 430.783 67.245 430.783 72.5504C430.783 77.8558 429.899 82.4048 428.13 86.1974C426.362 89.9687 423.933 92.8771 420.844 94.9226C417.754 96.9467 414.228 97.9588 410.265 97.9588C407.282 97.9588 404.842 97.4581 402.946 96.4567C401.071 95.4553 399.601 94.2834 398.535 92.941C397.47 91.5987 396.65 90.4055 396.074 89.3615H395.275V97H385.943ZM395.307 72.4545C395.307 75.9062 395.808 78.9318 396.809 81.5312C397.811 84.1307 399.26 86.1655 401.156 87.6357C403.052 89.0845 405.375 89.809 408.123 89.809C410.979 89.809 413.365 89.0526 415.283 87.5398C417.2 86.0057 418.649 83.9283 419.629 81.3075C420.631 78.6868 421.131 75.7358 421.131 72.4545C421.131 69.2159 420.641 66.3075 419.661 63.7294C418.702 61.1513 417.253 59.1165 415.314 57.625C413.397 56.1335 411 55.3878 408.123 55.3878C405.354 55.3878 403.01 56.1016 401.092 57.5291C399.196 58.9567 397.758 60.9489 396.778 63.5057C395.797 66.0625 395.307 69.0455 395.307 72.4545Z" fill="white"/>
<path d="M462.192 97.9908C457.59 97.9908 453.573 96.9361 450.143 94.8267C446.713 92.7173 444.049 89.7663 442.153 85.9737C440.257 82.1811 439.309 77.7493 439.309 72.6783C439.309 67.5859 440.257 63.1328 442.153 59.3189C444.049 55.505 446.713 52.5433 450.143 50.4339C453.573 48.3246 457.59 47.2699 462.192 47.2699C466.794 47.2699 470.811 48.3246 474.241 50.4339C477.672 52.5433 480.335 55.505 482.231 59.3189C484.127 63.1328 485.076 67.5859 485.076 72.6783C485.076 77.7493 484.127 82.1811 482.231 85.9737C480.335 89.7663 477.672 92.7173 474.241 94.8267C470.811 96.9361 466.794 97.9908 462.192 97.9908ZM462.224 89.9688C465.207 89.9688 467.679 89.1804 469.639 87.6037C471.599 86.027 473.048 83.9283 473.985 81.3075C474.944 78.6868 475.424 75.7997 475.424 72.6463C475.424 69.5142 474.944 66.6378 473.985 64.017C473.048 61.375 471.599 59.255 469.639 57.657C467.679 56.0589 465.207 55.2599 462.224 55.2599C459.22 55.2599 456.727 56.0589 454.745 57.657C452.785 59.255 451.326 61.375 450.367 64.017C449.429 66.6378 448.961 69.5142 448.961 72.6463C448.961 75.7997 449.429 78.6868 450.367 81.3075C451.326 83.9283 452.785 86.027 454.745 87.6037C456.727 89.1804 459.22 89.9688 462.224 89.9688Z" fill="white"/>
<path d="M526.84 76.6413V47.9091H536.428V97H527.031V88.4986H526.52C525.391 91.1193 523.58 93.3033 521.087 95.0504C518.615 96.7763 515.536 97.6392 511.85 97.6392C508.697 97.6392 505.906 96.9467 503.477 95.5618C501.069 94.1555 499.173 92.0781 497.788 89.3295C496.424 86.581 495.742 83.1825 495.742 79.1342V47.9091H505.298V77.9837C505.298 81.3288 506.225 83.9922 508.079 85.9737C509.933 87.9553 512.34 88.946 515.302 88.946C517.092 88.946 518.871 88.4986 520.639 87.6037C522.429 86.7088 523.91 85.3558 525.082 83.5447C526.275 81.7337 526.861 79.4325 526.84 76.6413Z" fill="white"/>
<path d="M549.268 97V47.9091H558.504V55.7074H559.016C559.911 53.0653 561.487 50.9879 563.746 49.4751C566.026 47.941 568.604 47.174 571.48 47.174C572.077 47.174 572.78 47.1953 573.589 47.2379C574.42 47.2805 575.07 47.3338 575.539 47.3977V56.5384C575.156 56.4318 574.474 56.3146 573.494 56.1868C572.513 56.0376 571.533 55.9631 570.553 55.9631C568.295 55.9631 566.281 56.4425 564.513 57.4013C562.766 58.3388 561.381 59.6491 560.358 61.3324C559.335 62.9943 558.824 64.8906 558.824 67.0213V97H549.268Z" fill="white"/>
<path d="M593.365 67.8523V97H583.809V47.9091H592.981V55.8991H593.589C594.718 53.2997 596.486 51.2116 598.894 49.6349C601.323 48.0582 604.381 47.2699 608.067 47.2699C611.412 47.2699 614.341 47.973 616.856 49.3793C619.37 50.7642 621.319 52.831 622.704 55.5795C624.089 58.3281 624.782 61.7266 624.782 65.7749V97H615.226V66.9254C615.226 63.3672 614.299 60.5866 612.445 58.5838C610.591 56.5597 608.045 55.5476 604.807 55.5476C602.591 55.5476 600.62 56.027 598.894 56.9858C597.189 57.9446 595.836 59.3508 594.835 61.2045C593.855 63.0369 593.365 65.2528 593.365 67.8523Z" fill="white"/>
<path d="M658.755 97.9908C653.919 97.9908 649.753 96.9574 646.259 94.8906C642.786 92.8026 640.101 89.8729 638.205 86.1016C636.33 82.3089 635.393 77.8665 635.393 72.7741C635.393 67.7457 636.33 63.3139 638.205 59.4787C640.101 55.6435 642.743 52.6499 646.131 50.4979C649.54 48.3459 653.525 47.2699 658.084 47.2699C660.854 47.2699 663.539 47.728 666.138 48.6442C668.738 49.5604 671.071 50.9986 673.138 52.9588C675.204 54.919 676.834 57.4652 678.028 60.5973C679.221 63.7081 679.817 67.4901 679.817 71.9432V75.331H640.794V68.1719H670.453C670.453 65.6577 669.942 63.4311 668.919 61.4922C667.896 59.532 666.458 57.9872 664.604 56.858C662.772 55.7287 660.62 55.1641 658.148 55.1641C655.464 55.1641 653.12 55.8246 651.117 57.1456C649.135 58.4453 647.601 60.1499 646.515 62.2592C645.449 64.3473 644.917 66.6165 644.917 69.0668V74.6598C644.917 77.941 645.492 80.7322 646.643 83.0334C647.814 85.3345 649.444 87.0923 651.532 88.3068C653.621 89.5 656.06 90.0966 658.851 90.0966C660.662 90.0966 662.314 89.8409 663.805 89.3295C665.297 88.7969 666.586 88.0085 667.672 86.9645C668.759 85.9205 669.59 84.6314 670.165 83.0973L679.21 84.7273C678.486 87.3906 677.186 89.7237 675.311 91.7266C673.457 93.7081 671.124 95.2528 668.312 96.3608C665.52 97.4474 662.335 97.9908 658.755 97.9908Z" fill="white"/>
<path d="M246.381 177H225.191V111.545H247.052C253.465 111.545 258.973 112.856 263.575 115.477C268.178 118.076 271.704 121.815 274.154 126.695C276.626 131.553 277.862 137.38 277.862 144.177C277.862 150.995 276.615 156.854 274.122 161.755C271.651 166.656 268.071 170.427 263.384 173.069C258.696 175.69 253.028 177 246.381 177ZM235.067 168.371H245.837C250.823 168.371 254.967 167.433 258.27 165.558C261.572 163.662 264.044 160.924 265.685 157.344C267.325 153.744 268.146 149.354 268.146 144.177C268.146 139.042 267.325 134.685 265.685 131.105C264.065 127.526 261.647 124.809 258.43 122.955C255.212 121.102 251.217 120.175 246.445 120.175H235.067V168.371Z" fill="white"/>
<path d="M289.375 177V127.909H298.931V177H289.375ZM294.201 120.335C292.539 120.335 291.112 119.781 289.918 118.673C288.747 117.543 288.161 116.201 288.161 114.646C288.161 113.069 288.747 111.727 289.918 110.619C291.112 109.489 292.539 108.925 294.201 108.925C295.863 108.925 297.28 109.489 298.452 110.619C299.645 111.727 300.242 113.069 300.242 114.646C300.242 116.201 299.645 117.543 298.452 118.673C297.28 119.781 295.863 120.335 294.201 120.335Z" fill="white"/>
<path d="M332.37 196.432C328.471 196.432 325.115 195.92 322.302 194.898C319.511 193.875 317.231 192.522 315.463 190.839C313.694 189.156 312.373 187.313 311.5 185.31L319.713 181.922C320.289 182.859 321.056 183.85 322.015 184.894C322.995 185.96 324.316 186.865 325.978 187.611C327.661 188.357 329.824 188.729 332.466 188.729C336.088 188.729 339.081 187.845 341.446 186.077C343.811 184.33 344.994 181.538 344.994 177.703V168.051H344.387C343.811 169.095 342.98 170.256 341.894 171.535C340.828 172.813 339.358 173.921 337.483 174.859C335.608 175.796 333.169 176.265 330.164 176.265C326.287 176.265 322.792 175.359 319.681 173.548C316.592 171.716 314.142 169.021 312.331 165.462C310.541 161.883 309.646 157.483 309.646 152.263C309.646 147.043 310.53 142.568 312.299 138.839C314.088 135.111 316.539 132.256 319.65 130.274C322.76 128.271 326.287 127.27 330.228 127.27C333.275 127.27 335.736 127.781 337.611 128.804C339.486 129.805 340.946 130.977 341.99 132.32C343.055 133.662 343.875 134.844 344.451 135.867H345.154V127.909H354.518V178.087C354.518 182.305 353.538 185.768 351.578 188.474C349.618 191.18 346.965 193.183 343.62 194.482C340.296 195.782 336.546 196.432 332.37 196.432ZM332.274 168.339C335.022 168.339 337.345 167.7 339.241 166.421C341.159 165.121 342.608 163.268 343.588 160.86C344.589 158.431 345.09 155.523 345.09 152.135C345.09 148.832 344.6 145.924 343.62 143.41C342.64 140.896 341.201 138.935 339.305 137.529C337.409 136.102 335.065 135.388 332.274 135.388C329.397 135.388 327 136.134 325.083 137.625C323.165 139.095 321.716 141.098 320.736 143.634C319.777 146.169 319.298 149.003 319.298 152.135C319.298 155.352 319.788 158.175 320.768 160.604C321.748 163.033 323.197 164.93 325.115 166.293C327.054 167.657 329.44 168.339 332.274 168.339Z" fill="white"/>
<path d="M367.334 177V127.909H376.89V177H367.334ZM372.16 120.335C370.498 120.335 369.071 119.781 367.877 118.673C366.706 117.543 366.12 116.201 366.12 114.646C366.12 113.069 366.706 111.727 367.877 110.619C369.071 109.489 370.498 108.925 372.16 108.925C373.822 108.925 375.239 109.489 376.411 110.619C377.604 111.727 378.201 113.069 378.201 114.646C378.201 116.201 377.604 117.543 376.411 118.673C375.239 119.781 373.822 120.335 372.16 120.335Z" fill="white"/>
<path d="M412.662 127.909V135.58H385.847V127.909H412.662ZM393.038 116.148H402.594V162.586C402.594 164.44 402.871 165.835 403.425 166.773C403.979 167.689 404.693 168.317 405.567 168.658C406.461 168.978 407.431 169.138 408.475 169.138C409.242 169.138 409.913 169.085 410.488 168.978C411.064 168.871 411.511 168.786 411.831 168.722L413.557 176.616C413.003 176.83 412.214 177.043 411.192 177.256C410.169 177.49 408.89 177.618 407.356 177.639C404.842 177.682 402.498 177.234 400.325 176.297C398.152 175.359 396.394 173.911 395.052 171.95C393.709 169.99 393.038 167.529 393.038 164.567V116.148Z" fill="white"/>
<path d="M437.519 178.087C434.408 178.087 431.596 177.511 429.081 176.361C426.567 175.189 424.575 173.495 423.105 171.279C421.656 169.063 420.931 166.347 420.931 163.129C420.931 160.359 421.464 158.08 422.529 156.29C423.595 154.5 425.033 153.083 426.844 152.039C428.655 150.995 430.679 150.207 432.917 149.674C435.154 149.141 437.434 148.737 439.756 148.46C442.696 148.119 445.083 147.842 446.915 147.629C448.748 147.394 450.079 147.021 450.91 146.51C451.741 145.999 452.157 145.168 452.157 144.017V143.793C452.157 141.002 451.368 138.839 449.792 137.305C448.236 135.771 445.914 135.004 442.824 135.004C439.607 135.004 437.071 135.718 435.218 137.146C433.385 138.552 432.118 140.118 431.414 141.844L422.434 139.798C423.499 136.815 425.054 134.408 427.1 132.575C429.167 130.722 431.542 129.379 434.227 128.548C436.912 127.696 439.735 127.27 442.696 127.27C444.657 127.27 446.734 127.504 448.929 127.973C451.145 128.42 453.211 129.251 455.129 130.466C457.068 131.68 458.655 133.417 459.891 135.675C461.127 137.913 461.745 140.821 461.745 144.401V177H452.412V170.288H452.029C451.411 171.524 450.484 172.739 449.248 173.932C448.012 175.125 446.425 176.116 444.486 176.904C442.547 177.692 440.225 178.087 437.519 178.087ZM439.596 170.416C442.238 170.416 444.497 169.894 446.372 168.85C448.268 167.806 449.706 166.442 450.686 164.759C451.688 163.055 452.189 161.233 452.189 159.294V152.966C451.848 153.307 451.187 153.626 450.207 153.925C449.248 154.202 448.151 154.447 446.915 154.66C445.679 154.852 444.475 155.033 443.304 155.203C442.132 155.352 441.152 155.48 440.363 155.587C438.51 155.821 436.816 156.215 435.282 156.769C433.769 157.323 432.554 158.122 431.638 159.166C430.743 160.189 430.296 161.553 430.296 163.257C430.296 165.622 431.169 167.412 432.917 168.626C434.664 169.82 436.89 170.416 439.596 170.416Z" fill="white"/>
<path d="M484.029 111.545V177H474.473V111.545H484.029Z" fill="white"/>
<path d="M117 200H197V120H117V200Z" fill="white"/>
<path d="M15 104H95V24H15V104Z" fill="white"/>
<path d="M15 200H95V120H15V200Z" fill="white"/>
<path d="M117 99H197V19H117V99Z" fill="white"/>
<path fill-rule="evenodd" clip-rule="evenodd" d="M105.2 210H7V111.8H105.2V210ZM56.2635 129.245C54.4557 129.245 52.9902 130.71 52.9902 132.518V157.79H27.7175C25.9097 157.79 24.4442 159.256 24.4442 161.064C24.4442 162.872 25.9097 164.337 27.7175 164.337H52.9902V189.61C52.9903 191.418 54.4558 192.883 56.2635 192.883C58.0712 192.883 59.5367 191.418 59.5368 189.61V164.337H84.8098C86.6175 164.337 88.0831 162.872 88.0831 161.064C88.0831 159.256 86.6175 157.791 84.8098 157.79H59.5368V132.518C59.5368 130.71 58.0713 129.245 56.2635 129.245Z" fill="url(#paint0_linear_60_173)"/>
<path fill-rule="evenodd" clip-rule="evenodd" d="M207 108.2H108.8V10H207V108.2ZM192.948 32.2353C191.67 30.9569 189.597 30.9569 188.319 32.2353L145.625 74.9288L127.482 56.7852C126.203 55.5069 124.131 55.5069 122.852 56.7852C121.574 58.0635 121.574 60.1362 122.852 61.4145L143.311 81.8728C144.589 83.1511 146.662 83.1511 147.94 81.8728L192.948 36.8646C194.226 35.5863 194.226 33.5136 192.948 32.2353Z" fill="url(#paint1_linear_60_173)"/>
<path fill-rule="evenodd" clip-rule="evenodd" d="M207 210H108.8V111.8H207V210ZM161.992 129.313C160.184 129.313 158.718 130.778 158.718 132.586C158.718 134.394 160.184 135.859 161.992 135.859H178.639L126.944 187.554C125.666 188.833 125.666 190.905 126.944 192.184C128.222 193.462 130.295 193.462 131.573 192.184L183.268 140.489V157.136C183.268 158.944 184.734 160.409 186.542 160.409C188.35 160.409 189.815 158.944 189.815 157.136V132.586C189.815 130.778 188.35 129.313 186.542 129.313H161.992Z" fill="url(#paint2_linear_60_173)"/>
<path fill-rule="evenodd" clip-rule="evenodd" d="M105.2 108.2H7V10H105.2V108.2ZM55.9362 32.2586C55.245 32.2586 54.5755 32.5004 54.0438 32.942C53.5122 33.3836 53.1516 33.9972 53.0247 34.6765L50.2561 49.3179C50.0717 50.2942 49.5972 51.1921 48.8947 51.8947C48.1921 52.5972 47.2942 53.0717 46.3179 53.2561L31.6765 56.0247C30.9972 56.1516 30.3836 56.5122 29.942 57.0438C29.5004 57.5755 29.2586 58.245 29.2586 58.9362C29.2586 59.6273 29.5004 60.2969 29.942 60.8286C30.3836 61.3602 30.9972 61.7204 31.6765 61.8473L46.3179 64.6162C47.2942 64.8006 48.1921 65.2751 48.8947 65.9776C49.5972 66.6802 50.0717 67.5782 50.2561 68.5544L53.0247 83.1955C53.1516 83.8749 53.5122 84.4887 54.0438 84.9303C54.5755 85.3719 55.245 85.6137 55.9362 85.6137C56.6273 85.6137 57.2969 85.3719 57.8286 84.9303C58.3602 84.4887 58.7204 83.8749 58.8473 83.1955L61.6162 68.5544C61.8007 67.5782 62.2751 66.6802 62.9776 65.9776C63.6802 65.2751 64.5782 64.8006 65.5544 64.6162L80.1955 61.8473C80.8749 61.7204 81.4887 61.3602 81.9303 60.8286C82.3719 60.2969 82.6137 59.6273 82.6137 58.9362C82.6137 58.245 82.3719 57.5755 81.9303 57.0438C81.4887 56.5122 80.8749 56.1516 80.1955 56.0247L65.5544 53.2561C64.5782 53.0717 63.6802 52.5972 62.9776 51.8947C62.319 51.236 61.8609 50.4055 61.6543 49.4998L61.6162 49.3179L58.8473 34.6765C58.7204 33.9972 58.3602 33.3836 57.8286 32.942C57.2969 32.5004 56.6273 32.2586 55.9362 32.2586Z" fill="url(#paint3_linear_60_173)"/>
<defs>
<linearGradient id="paint0_linear_60_173" x1="107" y1="10" x2="107" y2="210" gradientUnits="userSpaceOnUse">
<stop stop-color="#B8962E"/>
<stop offset="0.245192" stop-color="#E6C15A"/>
<stop offset="0.5" stop-color="#FFF2A8"/>
<stop offset="0.75" stop-color="#E6C15A"/>
<stop offset="1" stop-color="#B8962E"/>
</linearGradient>
<linearGradient id="paint1_linear_60_173" x1="107" y1="10" x2="107" y2="210" gradientUnits="userSpaceOnUse">
<stop stop-color="#B8962E"/>
<stop offset="0.245192" stop-color="#E6C15A"/>
<stop offset="0.5" stop-color="#FFF2A8"/>
<stop offset="0.75" stop-color="#E6C15A"/>
<stop offset="1" stop-color="#B8962E"/>
</linearGradient>
<linearGradient id="paint2_linear_60_173" x1="107" y1="10" x2="107" y2="210" gradientUnits="userSpaceOnUse">
<stop stop-color="#B8962E"/>
<stop offset="0.245192" stop-color="#E6C15A"/>
<stop offset="0.5" stop-color="#FFF2A8"/>
<stop offset="0.75" stop-color="#E6C15A"/>
<stop offset="1" stop-color="#B8962E"/>
</linearGradient>
<linearGradient id="paint3_linear_60_173" x1="107" y1="10" x2="107" y2="210" gradientUnits="userSpaceOnUse">
<stop stop-color="#B8962E"/>
<stop offset="0.245192" stop-color="#E6C15A"/>
<stop offset="0.5" stop-color="#FFF2A8"/>
<stop offset="0.75" stop-color="#E6C15A"/>
<stop offset="1" stop-color="#B8962E"/>
</linearGradient>
</defs>
</svg>
