<svg width="300" height="300" viewBox="0 0 300 300" fill="none" xmlns="http://www.w3.org/2000/svg">
<path d="M5 295H295V5H5V295Z" fill="white"/>
<path fill-rule="evenodd" clip-rule="evenodd" d="M300 300H0V0H300V300ZM149.5 68C147.389 68 145.343 68.7389 143.719 70.0879C142.095 71.4369 140.993 73.3113 140.605 75.3867L132.147 120.116C131.584 123.099 130.135 125.842 127.988 127.988C125.842 130.135 123.099 131.584 120.116 132.147L75.3867 140.605C73.3113 140.993 71.4369 142.095 70.0879 143.719C68.7389 145.343 68 147.389 68 149.5C68 151.611 68.7389 153.657 70.0879 155.281C71.4369 156.905 73.3114 158.006 75.3867 158.394L120.116 166.853C123.099 167.416 125.842 168.865 127.988 171.012C130.135 173.158 131.584 175.901 132.147 178.884L140.605 223.612C140.993 225.688 142.095 227.563 143.719 228.912C145.343 230.261 147.389 231 149.5 231C151.611 231 153.657 230.261 155.281 228.912C156.905 227.563 158.006 225.688 158.394 223.612L166.853 178.884C167.416 175.901 168.865 173.158 171.012 171.012C173.158 168.865 175.901 167.416 178.884 166.853L223.612 158.394L223.613 158.395C225.689 158.007 227.563 156.905 228.912 155.281C230.261 153.657 231 151.611 231 149.5C231 147.389 230.261 145.343 228.912 143.719C227.563 142.095 225.688 140.993 223.612 140.605L178.884 132.147C175.901 131.584 173.158 130.135 171.012 127.988C168.999 125.976 167.6 123.439 166.969 120.672L166.853 120.116L158.394 75.3867C158.006 73.3113 156.905 71.4369 155.281 70.0879C153.657 68.7389 151.611 68 149.5 68Z" fill="url(#paint0_linear_74_81)"/>
<defs>
<linearGradient id="paint0_linear_74_81" x1="150" y1="0" x2="150" y2="300" gradientUnits="userSpaceOnUse">
<stop stop-color="#B8962E"/>
<stop offset="0.25" stop-color="#E6C15A"/>
<stop offset="0.5" stop-color="#FFF2A8"/>
<stop offset="0.75" stop-color="#E6C15A"/>
<stop offset="1" stop-color="#B8962E"/>
</linearGradient>
</defs>
</svg>
